<svg width="233" height="34" viewBox="0 0 233 34" fill="none" xmlns="http://www.w3.org/2000/svg">
<path d="M14.3487 15.3387C12.6577 13.4626 12.7367 10.5933 14.5227 8.8074L21.9067 1.42336C23.7635 -0.43344 26.774 -0.433436 28.6308 1.42336L35.9237 8.71628C37.7729 10.5655 37.7816 13.561 35.9431 15.4209L23.324 28.1868C23.324 28.1868 23.957 25.6962 22.3722 24.1114C21.3744 23.1137 17.2602 18.5691 14.3487 15.3387Z" fill="white"/>
<path fill-rule="evenodd" clip-rule="evenodd" d="M2.40929 9.44904C0.640913 11.2174 0.640913 14.0845 2.40929 15.8529L15.8608 29.3045C17.6292 31.0729 20.4963 31.0729 22.2647 29.3045L29.8356 21.7335C30.3035 21.2657 31.2357 20.2984 32.1079 19.3933C32.8746 18.5978 33.5948 17.8504 33.9126 17.5327C33.9363 17.509 33.8706 17.4979 33.7312 17.4745C33.2049 17.3861 31.6269 17.1209 29.8356 15.3297L16.3841 1.87813C14.6157 0.109752 11.7486 0.109757 9.9802 1.87814L2.40929 9.44904ZM5.3848 14.3629C6.38516 14.3629 7.19609 13.552 7.19609 12.5516C7.19609 11.5513 6.38516 10.7403 5.3848 10.7403C4.38447 10.7403 3.57353 11.5513 3.57353 12.5516C3.57353 13.552 4.38447 14.3629 5.3848 14.3629Z" fill="white" fill-opacity="0.7"/>
<path d="M59.135 15.0871C59.8852 15.2056 60.5664 15.5116 61.1787 16.0052C61.8104 16.4989 62.3041 17.1109 62.6593 17.8415C63.0348 18.572 63.2221 19.352 63.2221 20.1813C63.2221 21.2277 62.9554 22.1755 62.4224 23.0245C61.8893 23.8538 61.1096 24.5152 60.0828 25.0088C59.0756 25.4827 57.8811 25.7196 56.4992 25.7196H48.7986V5.07654H56.203C57.605 5.07654 58.7995 5.31348 59.7866 5.78736C60.7738 6.24149 61.5142 6.86342 62.008 7.65321C62.5013 8.44303 62.7484 9.33152 62.7484 10.3188C62.7484 11.5429 62.4126 12.5598 61.7412 13.3693C61.0896 14.1591 60.2211 14.7317 59.135 15.0871ZM51.4937 13.9913H56.0251C57.2888 13.9913 58.2661 13.6951 58.9574 13.1028C59.6484 12.5104 59.994 11.691 59.994 10.6446C59.994 9.59808 59.6484 8.77868 58.9574 8.18633C58.2661 7.59397 57.2691 7.29783 55.9658 7.29783H51.4937V13.9913ZM56.262 23.4984C57.605 23.4984 58.6514 23.1824 59.4017 22.5506C60.1519 21.9188 60.5271 21.0401 60.5271 19.9147C60.5271 18.7695 60.1319 17.8711 59.3424 17.2196C58.5524 16.5482 57.4962 16.2126 56.1732 16.2126H51.4937V23.4984H56.262ZM81.3562 9.48947V25.7196H78.6612V23.3207C78.1478 24.1499 77.427 24.8015 76.4988 25.2754C75.5906 25.7295 74.5838 25.9566 73.4781 25.9566C72.2144 25.9566 71.0792 25.6999 70.072 25.1866C69.0652 24.6534 68.2655 23.8637 67.6731 22.8172C67.1004 21.7707 66.8141 20.4972 66.8141 18.9966V9.48947H69.4797V18.6412C69.4797 20.2405 69.8846 21.4745 70.6938 22.3433C71.5034 23.1923 72.6092 23.6169 74.0111 23.6169C75.4523 23.6169 76.5879 23.1726 77.4171 22.2841C78.2464 21.3956 78.6612 20.1023 78.6612 18.4042V9.48947H81.3562ZM84.8998 17.5453C84.8998 15.8868 85.2352 14.4355 85.9069 13.1916C86.5782 11.928 87.4962 10.9506 88.6613 10.2595C89.8456 9.56847 91.1686 9.22291 92.6299 9.22291C93.8935 9.22291 95.0684 9.51909 96.1542 10.1114C97.2403 10.684 98.0695 11.4442 98.6422 12.3919V3.80301H101.367V25.7196H98.6422V22.6691C98.1092 23.6366 97.3192 24.4362 96.2728 25.0681C95.2263 25.6802 94.002 25.9862 92.6 25.9862C91.1588 25.9862 89.8456 25.6308 88.6613 24.92C87.4962 24.2092 86.5782 23.2121 85.9069 21.9287C85.2352 20.6453 84.8998 19.1842 84.8998 17.5453ZM98.6422 17.5749C98.6422 16.3508 98.3951 15.2845 97.9018 14.3763C97.408 13.468 96.7367 12.777 95.8878 12.3031C95.0586 11.8095 94.1402 11.5627 93.1334 11.5627C92.1263 11.5627 91.2083 11.7996 90.3791 12.2735C89.5495 12.7474 88.8884 13.4384 88.3946 14.3467C87.9008 15.2549 87.6542 16.3212 87.6542 17.5453C87.6542 18.7893 87.9008 19.8752 88.3946 20.8032C88.8884 21.7115 89.5495 22.4124 90.3791 22.906C91.2083 23.3799 92.1263 23.6169 93.1334 23.6169C94.1402 23.6169 95.0586 23.3799 95.8878 22.906C96.7367 22.4124 97.408 21.7115 97.9018 20.8032C98.3951 19.8752 98.6422 18.7991 98.6422 17.5749ZM112.615 9.22291C114.017 9.22291 115.241 9.52899 116.287 10.1411C117.354 10.7531 118.143 11.5232 118.657 12.4512V9.48947H121.381V26.0751C121.381 27.5559 121.066 28.8689 120.434 30.0141C119.802 31.1791 118.894 32.0873 117.709 32.7389C116.544 33.3904 115.182 33.7162 113.622 33.7162C111.489 33.7162 109.712 33.2128 108.291 32.2058C106.869 31.1988 106.03 29.8265 105.774 28.089H108.439C108.735 29.0762 109.347 29.866 110.275 30.4584C111.203 31.0705 112.319 31.3765 113.622 31.3765C115.103 31.3765 116.307 30.9125 117.235 29.9845C118.183 29.0565 118.657 27.7534 118.657 26.0751V22.6691C118.124 23.6169 117.334 24.4066 116.287 25.0385C115.241 25.6703 114.017 25.9862 112.615 25.9862C111.173 25.9862 109.86 25.6308 108.676 24.92C107.511 24.2092 106.593 23.2121 105.922 21.9287C105.25 20.6453 104.914 19.1842 104.914 17.5453C104.914 15.8868 105.25 14.4355 105.922 13.1916C106.593 11.928 107.511 10.9506 108.676 10.2595C109.86 9.56847 111.173 9.22291 112.615 9.22291ZM118.657 17.5749C118.657 16.3508 118.41 15.2845 117.916 14.3763C117.423 13.468 116.751 12.777 115.902 12.3031C115.073 11.8095 114.155 11.5627 113.148 11.5627C112.141 11.5627 111.223 11.7996 110.394 12.2735C109.564 12.7474 108.903 13.4384 108.409 14.3467C107.916 15.2549 107.669 16.3212 107.669 17.5453C107.669 18.7893 107.916 19.8752 108.409 20.8032C108.903 21.7115 109.564 22.4124 110.394 22.906C111.223 23.3799 112.141 23.6169 113.148 23.6169C114.155 23.6169 115.073 23.3799 115.902 22.906C116.751 22.4124 117.423 21.7115 117.916 20.8032C118.41 19.8752 118.657 18.7991 118.657 17.5749ZM140.745 16.9826C140.745 17.496 140.715 18.039 140.656 18.6116H127.683C127.782 20.2109 128.325 21.4646 129.312 22.3729C130.319 23.2614 131.534 23.7057 132.955 23.7057C134.12 23.7057 135.088 23.4391 135.858 22.906C136.648 22.3532 137.2 21.6226 137.516 20.7143H140.419C139.984 22.2742 139.116 23.5477 137.812 24.535C136.51 25.5025 134.89 25.9862 132.955 25.9862C131.415 25.9862 130.033 25.6407 128.809 24.9496C127.605 24.2585 126.657 23.2812 125.966 22.0175C125.275 20.7341 124.929 19.2533 124.929 17.5749C124.929 15.8967 125.265 14.4257 125.936 13.162C126.608 11.8983 127.545 10.9308 128.75 10.2595C129.974 9.56847 131.376 9.22291 132.955 9.22291C134.496 9.22291 135.858 9.55861 137.043 10.2299C138.227 10.9012 139.135 11.8292 139.767 13.0139C140.419 14.1789 140.745 15.5018 140.745 16.9826ZM137.961 16.4199C137.961 15.3932 137.734 14.5145 137.279 13.784C136.825 13.0337 136.204 12.4709 135.414 12.0958C134.644 11.7009 133.785 11.5034 132.837 11.5034C131.474 11.5034 130.309 11.9378 129.342 12.8066C128.394 13.6754 127.851 14.8798 127.713 16.4199H137.961ZM147.59 11.7108V21.2771C147.59 22.0669 147.757 22.6296 148.093 22.9653C148.429 23.2812 149.011 23.4391 149.841 23.4391H151.825V25.7196H149.396C147.896 25.7196 146.77 25.3741 146.02 24.6831C145.27 23.992 144.895 22.8566 144.895 21.2771V11.7108H142.792V9.48947H144.895V5.40233H147.59V9.48947H151.825V11.7108H147.59ZM174.608 9.19329C175.872 9.19329 176.997 9.45985 177.984 9.99297C178.972 10.5063 179.751 11.2863 180.324 12.3327C180.897 13.3792 181.183 14.6527 181.183 16.1533V25.7196H178.518V16.5384C178.518 14.9193 178.113 13.6852 177.303 12.8362C176.514 11.9674 175.437 11.5331 174.075 11.5331C172.673 11.5331 171.557 11.9872 170.728 12.8954C169.899 13.784 169.484 15.0772 169.484 16.7753V25.7196H166.819V16.5384C166.819 14.9193 166.414 13.6852 165.604 12.8362C164.815 11.9674 163.739 11.5331 162.376 11.5331C160.974 11.5331 159.859 11.9872 159.03 12.8954C158.2 13.784 157.786 15.0772 157.786 16.7753V25.7196H155.091V9.48947H157.786V11.8292C158.319 10.9802 159.03 10.3286 159.918 9.8745C160.826 9.42038 161.823 9.19329 162.909 9.19329C164.272 9.19329 165.476 9.49937 166.522 10.1114C167.569 10.7235 168.349 11.6219 168.862 12.8066C169.316 11.6614 170.067 10.7729 171.113 10.1411C172.16 9.50923 173.325 9.19329 174.608 9.19329ZM184.597 17.5453C184.597 15.8868 184.933 14.4355 185.604 13.1916C186.275 11.928 187.194 10.9506 188.358 10.2595C189.543 9.56847 190.856 9.22291 192.297 9.22291C193.719 9.22291 194.953 9.52899 196 10.1411C197.046 10.7531 197.826 11.5232 198.339 12.4512V9.48947H201.064V25.7196H198.339V22.6987C197.806 23.6464 197.007 24.4362 195.94 25.0681C194.894 25.6802 193.67 25.9862 192.268 25.9862C190.826 25.9862 189.523 25.6308 188.358 24.92C187.194 24.2092 186.275 23.2121 185.604 21.9287C184.933 20.6453 184.597 19.1842 184.597 17.5453ZM198.339 17.5749C198.339 16.3508 198.093 15.2845 197.599 14.3763C197.105 13.468 196.434 12.777 195.585 12.3031C194.756 11.8095 193.838 11.5627 192.831 11.5627C191.824 11.5627 190.906 11.7996 190.076 12.2735C189.247 12.7474 188.585 13.4384 188.092 14.3467C187.598 15.2549 187.352 16.3212 187.352 17.5453C187.352 18.7893 187.598 19.8752 188.092 20.8032C188.585 21.7115 189.247 22.4124 190.076 22.906C190.906 23.3799 191.824 23.6169 192.831 23.6169C193.838 23.6169 194.756 23.3799 195.585 22.906C196.434 22.4124 197.105 21.7115 197.599 20.8032C198.093 19.8752 198.339 18.7991 198.339 17.5749ZM208.906 11.7108V21.2771C208.906 22.0669 209.074 22.6296 209.41 22.9653C209.746 23.2812 210.328 23.4391 211.157 23.4391H213.141V25.7196H210.713C209.212 25.7196 208.087 25.3741 207.336 24.6831C206.586 23.992 206.211 22.8566 206.211 21.2771V11.7108H204.108V9.48947H206.211V5.40233H208.906V9.48947H213.141V11.7108H208.906ZM231.215 16.9826C231.215 17.496 231.186 18.039 231.127 18.6116H218.154C218.253 20.2109 218.796 21.4646 219.783 22.3729C220.79 23.2614 222.005 23.7057 223.426 23.7057C224.591 23.7057 225.559 23.4391 226.329 22.906C227.118 22.3532 227.671 21.6226 227.987 20.7143H230.89C230.455 22.2742 229.587 23.5477 228.283 24.535C226.98 25.5025 225.361 25.9862 223.426 25.9862C221.886 25.9862 220.504 25.6407 219.28 24.9496C218.076 24.2585 217.128 23.2812 216.437 22.0175C215.745 20.7341 215.4 19.2533 215.4 17.5749C215.4 15.8967 215.736 14.4257 216.407 13.162C217.078 11.8983 218.016 10.9308 219.221 10.2595C220.445 9.56847 221.847 9.22291 223.426 9.22291C224.966 9.22291 226.329 9.55861 227.514 10.2299C228.698 10.9012 229.606 11.8292 230.238 13.0139C230.89 14.1789 231.215 15.5018 231.215 16.9826ZM228.432 16.4199C228.432 15.3932 228.204 14.5145 227.75 13.784C227.296 13.0337 226.674 12.4709 225.885 12.0958C225.114 11.7009 224.256 11.5034 223.308 11.5034C221.945 11.5034 220.78 11.9378 219.813 12.8066C218.865 13.6754 218.322 14.8798 218.184 16.4199H228.432Z" fill="white"/>
</svg>
