<svg width="193" height="34" viewBox="0 0 193 34" fill="none" xmlns="http://www.w3.org/2000/svg">
<g clip-path="url(#clip0_118_176)">
<path fill-rule="evenodd" clip-rule="evenodd" d="M0.640825 11.4226V13.9091V15.0682V33.1698C1.71927 33.1698 3.03563 33.1743 4.49151 33.1808C4.68075 33.3346 4.9315 33.4115 5.24376 33.4115C6.14858 33.4115 6.913 33.3395 7.5371 33.1955C13.4605 33.2251 20.4068 33.2591 23.3598 33.1698C27.6363 33.0405 32.0465 29.4202 32.3137 23.7311C32.5276 19.1798 28.8445 14.6819 25.5606 13.9091H25.4197C27.153 12.6301 28.9727 10.5639 28.8375 7.87981C28.5995 3.15903 24.6734 0.154978 20.8663 0.0476857C18.2194 -0.0269089 11.9687 0.0022193 6.67211 0.0269014C4.35039 0.0377207 2.212 0.0476857 0.640825 0.0476857V11.4226ZM0.640825 11.4226C0.615627 11.2603 0.603027 11.0836 0.603027 10.8925C0.628387 8.93984 1.94707 7.35486 4.55908 6.13762C7.17105 4.92038 10.3917 4.32445 14.221 4.3498L25.6326 4.54C26.3173 4.54 26.6597 4.80629 26.6597 5.33881C26.6597 5.49096 26.5582 5.76992 26.3553 6.17568C26.1524 6.55605 25.9749 6.97448 25.8228 7.43097C25.4931 8.34387 24.7831 8.80036 23.6926 8.80036H22.4754L17.4162 8.7623H14.4872C14.2843 10.2078 13.6757 12.5662 12.6614 15.8375L19.6225 15.9516C20.0282 15.9516 20.2311 16.1926 20.2311 16.6744C20.2311 16.8266 20.1677 17.0928 20.0409 17.4732C19.9141 17.8536 19.8 18.2467 19.6985 18.6524C19.4957 19.4893 19.0646 19.9077 18.4052 19.9077L12.6233 19.6414H12.1288C11.9766 19.6414 11.7991 19.6541 11.5963 19.6795C10.2776 24.5231 9.61824 28.3523 9.61824 31.1672C9.61824 32.1992 8.92453 32.8753 7.5371 33.1955C7.49668 33.1952 7.45631 33.1951 7.41597 33.1949H7.41504H7.41431C6.40045 33.1898 5.41774 33.1849 4.49151 33.1808C4.29658 33.0223 4.16694 32.7822 4.1026 32.4605C4.00117 31.8012 3.95045 30.939 3.95045 29.8739C3.95045 27.5915 4.49568 24.4089 5.58611 20.3261C4.11528 20.529 2.89804 20.6304 1.93439 20.6304C1.60472 20.6304 1.43988 20.5036 1.43988 20.2501C1.43988 19.6668 1.83295 19.0582 2.61909 18.4242C3.43058 17.7648 4.73658 17.1943 6.53707 16.7124C7.34859 13.8215 8.2742 11.1714 9.31394 8.7623C6.77801 8.88911 4.69856 9.72597 3.07555 11.2729C2.66981 11.6786 2.34013 11.9956 2.08654 12.2239C1.83295 12.4521 1.60472 12.5662 1.40184 12.5662C1.22433 12.5662 1.04681 12.4141 0.8693 12.1097C0.758666 11.9201 0.682508 11.691 0.640825 11.4226Z" fill="white"/>
<path d="M43.642 27.7171V5.6879H58.228V9.52793H48.2996V14.7771H57.2597V18.6171H48.2996V27.7171H43.642ZM65.8571 5.6879V27.7171H61.2748V5.6879H65.8571ZM74.2389 28.0291C73.1849 28.0291 72.2452 27.8462 71.4207 27.4805C70.5962 27.1076 69.9437 26.559 69.463 25.8348C68.9897 25.1033 68.7533 24.1926 68.7533 23.1026C68.7533 22.1847 68.9217 21.4138 69.2587 20.79C69.5956 20.1661 70.0546 19.6641 70.6357 19.284C71.2164 18.904 71.8763 18.6171 72.6146 18.4235C73.3603 18.2299 74.1423 18.0937 74.9594 18.0148C75.9203 17.9144 76.695 17.8212 77.283 17.7351C77.8711 17.6419 78.2976 17.5056 78.5631 17.3264C78.8285 17.1471 78.961 16.8818 78.961 16.5304V16.4659C78.961 15.7846 78.7458 15.2575 78.3158 14.8847C77.8923 14.5117 77.29 14.3253 76.5084 14.3253C75.6839 14.3253 75.0278 14.5082 74.5402 14.8739C74.0527 15.2324 73.7296 15.6842 73.572 16.2292L69.334 15.885C69.5492 14.8811 69.9723 14.0134 70.6032 13.282C71.2341 12.5433 72.0482 11.9768 73.045 11.5824C74.0488 11.1809 75.2106 10.9801 76.53 10.9801C77.448 10.9801 78.3262 11.0876 79.1654 11.3028C80.0115 11.5179 80.7611 11.8513 81.4136 12.3031C82.0732 12.7549 82.5932 13.3357 82.973 14.0456C83.3532 14.7484 83.5433 15.591 83.5433 16.5734V27.7171H79.1975V25.426H79.0684C78.8034 25.9423 78.4483 26.3976 78.0036 26.792C77.5589 27.1793 77.0249 27.4841 76.401 27.7064C75.777 27.9215 75.0564 28.0291 74.2389 28.0291ZM75.5514 24.8666C76.2252 24.8666 76.8206 24.734 77.3367 24.4686C77.8529 24.1962 78.2582 23.8305 78.5522 23.3715C78.8463 22.9126 78.9931 22.3927 78.9931 21.8118V20.0585C78.8497 20.1517 78.6527 20.2378 78.4016 20.3167C78.1578 20.3884 77.8819 20.4565 77.5736 20.5211C77.2649 20.5784 76.9566 20.6322 76.6482 20.6824C76.3399 20.7254 76.0602 20.7648 75.8094 20.8007C75.2716 20.8796 74.8018 21.0051 74.4004 21.1772C73.9986 21.3493 73.6868 21.5824 73.4646 21.8763C73.2421 22.1632 73.1312 22.5218 73.1312 22.952C73.1312 23.5759 73.3568 24.0528 73.8085 24.3826C74.2675 24.7053 74.8486 24.8666 75.5514 24.8666ZM95.8864 11.1952V14.6373H85.9364V11.1952H95.8864ZM88.1955 7.23683H92.7778V22.6401C92.7778 23.0632 92.8423 23.393 92.9713 23.6297C93.1004 23.8591 93.2796 24.0205 93.5091 24.1137C93.7456 24.2069 94.0184 24.2535 94.3267 24.2535C94.5419 24.2535 94.7567 24.2356 94.9719 24.1997C95.1871 24.1567 95.3521 24.1245 95.4669 24.103L96.1874 27.5127C95.9579 27.5844 95.6353 27.6669 95.2192 27.7602C94.8035 27.8605 94.2981 27.9215 93.7027 27.943C92.5985 27.986 91.6303 27.839 90.7984 27.502C89.9739 27.165 89.3322 26.6415 88.8732 25.9315C88.4142 25.2216 88.1882 24.3252 88.1955 23.2424V7.23683ZM99.3123 27.7171V5.6879H103.895V13.9704H104.034C104.235 13.5257 104.526 13.074 104.906 12.615C105.293 12.1489 105.795 11.7617 106.411 11.4533C107.035 11.1378 107.81 10.9801 108.735 10.9801C109.94 10.9801 111.051 11.2956 112.069 11.9266C113.088 12.5505 113.901 13.4935 114.511 14.7556C115.121 16.0105 115.425 17.5845 115.425 19.4777C115.425 21.3206 115.128 22.8767 114.533 24.146C113.945 25.4081 113.141 26.3654 112.123 27.018C111.112 27.6633 109.979 27.986 108.724 27.986C107.835 27.986 107.078 27.839 106.455 27.545C105.838 27.251 105.332 26.8817 104.938 26.4371C104.543 25.9853 104.242 25.53 104.034 25.071H103.83V27.7171H99.3123ZM103.798 19.4562C103.798 20.4386 103.934 21.2955 104.206 22.0269C104.479 22.7584 104.873 23.3285 105.389 23.7372C105.906 24.1388 106.533 24.3396 107.272 24.3396C108.018 24.3396 108.649 24.1352 109.165 23.7265C109.682 23.3106 110.072 22.7369 110.338 22.0054C110.61 21.2668 110.746 20.4171 110.746 19.4562C110.746 18.5024 110.614 17.6634 110.348 16.9392C110.083 16.2149 109.692 15.6484 109.176 15.2396C108.66 14.8309 108.025 14.6265 107.272 14.6265C106.526 14.6265 105.895 14.8237 105.379 15.2181C104.87 15.6125 104.479 16.1718 104.206 16.8961C103.934 17.6204 103.798 18.4737 103.798 19.4562ZM129.078 20.6824V11.1952H133.66V27.7171H129.261V24.7161H129.089C128.716 25.6841 128.096 26.4622 127.228 27.0502C126.367 27.6382 125.317 27.9322 124.076 27.9322C122.972 27.9322 122 27.6813 121.161 27.1793C120.322 26.6773 119.666 25.9638 119.193 25.0388C118.727 24.1137 118.49 23.0058 118.483 21.715V11.1952H123.065V20.8975C123.073 21.8728 123.334 22.6437 123.85 23.2101C124.367 23.7767 125.059 24.0599 125.926 24.0599C126.479 24.0599 126.995 23.9344 127.475 23.6834C127.956 23.4253 128.343 23.0452 128.637 22.5432C128.938 22.0413 129.085 21.421 129.078 20.6824ZM143.414 27.986C142.159 27.986 141.022 27.6633 140.004 27.018C138.993 26.3654 138.19 25.4081 137.594 24.146C137.006 22.8767 136.712 21.3206 136.712 19.4777C136.712 17.5845 137.017 16.0105 137.627 14.7556C138.236 13.4935 139.047 12.5505 140.058 11.9266C141.076 11.2956 142.191 10.9801 143.403 10.9801C144.328 10.9801 145.099 11.1378 145.716 11.4533C146.339 11.7617 146.842 12.1489 147.221 12.615C147.609 13.074 147.903 13.5257 148.103 13.9704H148.243V5.6879H152.815V27.7171H148.297V25.071H148.103C147.888 25.53 147.583 25.9853 147.189 26.4371C146.802 26.8817 146.296 27.251 145.672 27.545C145.056 27.839 144.303 27.986 143.414 27.986ZM144.866 24.3396C145.604 24.3396 146.228 24.1388 146.737 23.7372C147.254 23.3285 147.648 22.7584 147.921 22.0269C148.2 21.2955 148.34 20.4386 148.34 19.4562C148.34 18.4737 148.204 17.6204 147.932 16.8961C147.659 16.1718 147.265 15.6125 146.748 15.2181C146.232 14.8237 145.604 14.6265 144.866 14.6265C144.113 14.6265 143.478 14.8309 142.962 15.2396C142.446 15.6484 142.055 16.2149 141.79 16.9392C141.524 17.6634 141.392 18.5024 141.392 19.4562C141.392 20.4171 141.524 21.2668 141.79 22.0054C142.062 22.7369 142.453 23.3106 142.962 23.7265C143.478 24.1352 144.113 24.3396 144.866 24.3396ZM162.671 27.986C161.416 27.986 160.279 27.6633 159.261 27.018C158.249 26.3654 157.447 25.4081 156.851 24.146C156.263 22.8767 155.969 21.3206 155.969 19.4777C155.969 17.5845 156.274 16.0105 156.884 14.7556C157.493 13.4935 158.303 12.5505 159.315 11.9266C160.333 11.2956 161.448 10.9801 162.66 10.9801C163.585 10.9801 164.355 11.1378 164.973 11.4533C165.596 11.7617 166.098 12.1489 166.478 12.615C166.865 13.074 167.159 13.5257 167.36 13.9704H167.5V5.6879H172.072V27.7171H167.554V25.071H167.36C167.145 25.53 166.84 25.9853 166.446 26.4371C166.059 26.8817 165.553 27.251 164.929 27.545C164.313 27.839 163.56 27.986 162.671 27.986ZM164.123 24.3396C164.861 24.3396 165.485 24.1388 165.994 23.7372C166.511 23.3285 166.905 22.7584 167.177 22.0269C167.457 21.2955 167.597 20.4386 167.597 19.4562C167.597 18.4737 167.461 17.6204 167.188 16.8961C166.916 16.1718 166.521 15.6125 166.005 15.2181C165.489 14.8237 164.861 14.6265 164.123 14.6265C163.369 14.6265 162.735 14.8309 162.219 15.2396C161.702 15.6484 161.312 16.2149 161.046 16.9392C160.781 17.6634 160.648 18.5024 160.648 19.4562C160.648 20.4171 160.781 21.2668 161.046 22.0054C161.319 22.7369 161.71 23.3106 162.219 23.7265C162.735 24.1352 163.369 24.3396 164.123 24.3396ZM178.668 33.9128C178.087 33.9128 177.542 33.8662 177.033 33.773C176.531 33.6869 176.115 33.5758 175.785 33.4395L176.818 30.019C177.356 30.1839 177.84 30.2736 178.27 30.2879C178.707 30.3022 179.084 30.2019 179.399 29.9867C179.722 29.7716 179.984 29.4059 180.185 28.8896L180.454 28.1904L174.527 11.1952H179.346L182.766 23.3285H182.938L186.391 11.1952H191.242L184.821 29.5027C184.512 30.3919 184.093 31.1663 183.562 31.8261C183.039 32.493 182.375 33.0057 181.572 33.3642C180.769 33.73 179.801 33.9128 178.668 33.9128Z" fill="white"/>
</g>
<defs>
<clipPath id="clip0_118_176">
<rect width="191.636" height="34" fill="white" transform="translate(0.603027)"/>
</clipPath>
</defs>
</svg>
