<svg width="213" height="34" viewBox="0 0 213 34" fill="none" xmlns="http://www.w3.org/2000/svg">
<path d="M0 32V0.0593985C5.79118 0.0593985 18.4427 -0.0742482 22.7193 0.0593985C26.9958 0.193045 31.406 3.93498 31.6733 9.81531C31.8871 14.5195 27.7531 17.7002 25.6594 18.7694L33.277 32H0Z" fill="#EC5242"/>
<path d="M24.4566 11.5494V6.47095L12.3549 6.58511C10.99 6.59799 9.60116 6.81166 8.49428 7.61044C6.73927 8.87693 4.81114 11.1495 4.81114 14.4895C4.81114 18.1248 7.26236 20.2727 9.25735 21.2767C10.1727 21.7374 11.2107 21.8399 12.2354 21.8399H17.6408C18.3536 21.929 19.7791 22.5883 19.7791 24.5127C19.7791 25.2542 19.5675 25.821 19.2666 26.2454C18.5052 27.3193 16.9959 27.3193 15.6765 27.3192H15.6472H0V31.9967H17.4158C18.1879 31.9967 18.9685 31.9536 19.689 31.6763C21.7312 30.8903 24.4566 28.7917 24.4566 24.5127C24.4566 20.352 21.8212 18.2528 19.7554 17.4173C18.9094 17.0752 17.9837 17.0287 17.0711 17.0287H13.65C12.4 17.0287 11.0765 16.8238 10.3367 15.8162C10.0065 15.3665 9.75591 14.8201 9.75591 14.2222C9.75591 13.2415 10.2224 12.5773 10.7579 12.138C11.3536 11.6493 12.1569 11.5494 12.9274 11.5494H24.4566Z" fill="white"/>
<path d="M43.162 27V4.38801H52.0832C53.7909 4.38801 55.2483 4.69347 56.4554 5.30441C57.6699 5.90799 58.5937 6.7655 59.2267 7.87697C59.8671 8.98107 60.1873 10.2802 60.1873 11.7744C60.1873 13.276 59.8634 14.5678 59.2157 15.6498C58.5679 16.7245 57.6295 17.5489 56.4002 18.123C55.1783 18.6972 53.6989 18.9842 51.9617 18.9842H45.9885V15.142H51.1889C52.1016 15.142 52.8597 15.0168 53.4633 14.7666C54.0669 14.5163 54.5159 14.1409 54.8103 13.6404C55.1121 13.1398 55.263 12.5179 55.263 11.7744C55.263 11.0237 55.1121 10.3906 54.8103 9.87539C54.5159 9.36014 54.0632 8.97003 53.4523 8.70504C52.8487 8.4327 52.0869 8.29653 51.1668 8.29653H47.9428V27H43.162ZM55.3734 16.7098L60.9933 27H55.7157L50.2173 16.7098H55.3734ZM70.8667 27.3312C69.1517 27.3312 67.6685 26.9669 66.4172 26.2382C65.1732 25.5021 64.2127 24.479 63.5355 23.1688C62.8583 21.8512 62.5197 20.3239 62.5197 18.5867C62.5197 16.8349 62.8583 15.3039 63.5355 13.9937C64.2127 12.6761 65.1732 11.653 66.4172 10.9243C67.6685 10.1882 69.1517 9.82019 70.8667 9.82019C72.5817 9.82019 74.0612 10.1882 75.3052 10.9243C76.5565 11.653 77.5208 12.6761 78.1979 13.9937C78.8751 15.3039 79.2137 16.8349 79.2137 18.5867C79.2137 20.3239 78.8751 21.8512 78.1979 23.1688C77.5208 24.479 76.5565 25.5021 75.3052 26.2382C74.0612 26.9669 72.5817 27.3312 70.8667 27.3312ZM70.8888 23.6877C71.669 23.6877 72.3204 23.4669 72.843 23.0252C73.3657 22.5762 73.7595 21.9653 74.0244 21.1924C74.2968 20.4196 74.433 19.54 74.433 18.5536C74.433 17.5673 74.2968 16.6877 74.0244 15.9148C73.7595 15.142 73.3657 14.531 72.843 14.082C72.3204 13.633 71.669 13.4085 70.8888 13.4085C70.1012 13.4085 69.4387 13.633 68.9014 14.082C68.3714 14.531 67.9703 15.142 67.6979 15.9148C67.433 16.6877 67.3005 17.5673 67.3005 18.5536C67.3005 19.54 67.433 20.4196 67.6979 21.1924C67.9703 21.9653 68.3714 22.5762 68.9014 23.0252C69.4387 23.4669 70.1012 23.6877 70.8888 23.6877ZM89.9345 27.3312C88.2195 27.3312 86.7363 26.9669 85.485 26.2382C84.2411 25.5021 83.2805 24.479 82.6033 23.1688C81.9261 21.8512 81.5875 20.3239 81.5875 18.5867C81.5875 16.8349 81.9261 15.3039 82.6033 13.9937C83.2805 12.6761 84.2411 11.653 85.485 10.9243C86.7363 10.1882 88.2195 9.82019 89.9345 9.82019C91.6496 9.82019 93.1291 10.1882 94.373 10.9243C95.6243 11.653 96.5886 12.6761 97.2658 13.9937C97.9429 15.3039 98.2815 16.8349 98.2815 18.5867C98.2815 20.3239 97.9429 21.8512 97.2658 23.1688C96.5886 24.479 95.6243 25.5021 94.373 26.2382C93.1291 26.9669 91.6496 27.3312 89.9345 27.3312ZM89.9566 23.6877C90.7368 23.6877 91.3883 23.4669 91.9109 23.0252C92.4335 22.5762 92.8273 21.9653 93.0923 21.1924C93.3646 20.4196 93.5008 19.54 93.5008 18.5536C93.5008 17.5673 93.3646 16.6877 93.0923 15.9148C92.8273 15.142 92.4335 14.531 91.9109 14.082C91.3883 13.633 90.7368 13.4085 89.9566 13.4085C89.169 13.4085 88.5066 13.633 87.9692 14.082C87.4393 14.531 87.0381 15.142 86.7658 15.9148C86.5008 16.6877 86.3683 17.5673 86.3683 18.5536C86.3683 19.54 86.5008 20.4196 86.7658 21.1924C87.0381 21.9653 87.4393 22.5762 87.9692 23.0252C88.5066 23.4669 89.169 23.6877 89.9566 23.6877ZM101.34 27V10.041H105.823V13.0331H106.021C106.375 12.0394 106.963 11.2555 107.788 10.6814C108.612 10.1073 109.599 9.82019 110.747 9.82019C111.91 9.82019 112.9 10.1109 113.717 10.6924C114.534 11.2666 115.079 12.0468 115.351 13.0331H115.528C115.874 12.0615 116.499 11.285 117.405 10.7035C118.317 10.1146 119.396 9.82019 120.64 9.82019C122.222 9.82019 123.507 10.3244 124.493 11.3328C125.487 12.3339 125.983 13.7545 125.983 15.5946V27H121.291V16.5221C121.291 15.5799 121.041 14.8733 120.54 14.4022C120.04 13.9311 119.414 13.6956 118.663 13.6956C117.809 13.6956 117.143 13.9679 116.665 14.5126C116.186 15.0499 115.947 15.7602 115.947 16.6435V27H111.387V16.4227C111.387 15.591 111.148 14.9285 110.67 14.4353C110.198 13.9422 109.576 13.6956 108.804 13.6956C108.281 13.6956 107.81 13.8281 107.39 14.0931C106.978 14.3507 106.651 14.715 106.408 15.1861C106.165 15.6498 106.043 16.1945 106.043 16.8202V27H101.34ZM143.809 14.877L139.503 15.142C139.43 14.7739 139.271 14.4427 139.028 14.1483C138.785 13.8465 138.465 13.6073 138.068 13.4306C137.678 13.2466 137.21 13.1546 136.666 13.1546C135.937 13.1546 135.322 13.3091 134.822 13.6183C134.321 13.9201 134.071 14.3249 134.071 14.8328C134.071 15.2376 134.233 15.5799 134.557 15.8596C134.881 16.1393 135.436 16.3638 136.224 16.5331L139.293 17.1514C140.942 17.49 142.171 18.0347 142.981 18.7855C143.791 19.5363 144.196 20.5226 144.196 21.7445C144.196 22.8559 143.868 23.8312 143.213 24.6703C142.565 25.5095 141.675 26.1646 140.541 26.6356C139.415 27.0994 138.116 27.3312 136.644 27.3312C134.399 27.3312 132.61 26.8638 131.278 25.929C129.953 24.9869 129.176 23.7061 128.948 22.0867L133.574 21.8438C133.714 22.5284 134.053 23.051 134.59 23.4117C135.127 23.765 135.815 23.9416 136.655 23.9416C137.479 23.9416 138.141 23.7834 138.642 23.4669C139.15 23.143 139.407 22.7271 139.415 22.2192C139.407 21.7923 139.227 21.4427 138.874 21.1703C138.521 20.8906 137.976 20.6772 137.24 20.53L134.303 19.9448C132.647 19.6136 131.414 19.0394 130.604 18.2224C129.802 17.4054 129.401 16.3638 129.401 15.0978C129.401 14.0084 129.695 13.0699 130.284 12.2823C130.88 11.4947 131.716 10.8875 132.79 10.4606C133.872 10.0336 135.138 9.82019 136.588 9.82019C138.73 9.82019 140.416 10.2729 141.645 11.1782C142.882 12.0836 143.603 13.3165 143.809 14.877ZM151.993 27.3202C150.911 27.3202 149.947 27.1325 149.101 26.7571C148.254 26.3743 147.584 25.8113 147.091 25.0678C146.605 24.317 146.362 23.3822 146.362 22.2634C146.362 21.3212 146.535 20.53 146.881 19.8896C147.227 19.2492 147.698 18.734 148.295 18.3438C148.891 17.9537 149.568 17.6593 150.326 17.4606C151.092 17.2618 151.894 17.122 152.733 17.041C153.719 16.938 154.514 16.8423 155.118 16.7539C155.721 16.6583 156.159 16.5184 156.432 16.3344C156.704 16.1504 156.84 15.878 156.84 15.5173V15.4511C156.84 14.7518 156.619 14.2108 156.178 13.8281C155.744 13.4453 155.125 13.2539 154.323 13.2539C153.476 13.2539 152.803 13.4416 152.302 13.817C151.802 14.1851 151.471 14.6488 151.309 15.2082L146.959 14.8549C147.179 13.8244 147.614 12.9338 148.261 12.183C148.909 11.4248 149.745 10.8433 150.768 10.4385C151.798 10.0263 152.991 9.82019 154.345 9.82019C155.287 9.82019 156.189 9.9306 157.05 10.1514C157.919 10.3722 158.688 10.7145 159.358 11.1782C160.035 11.642 160.568 12.2382 160.959 12.9669C161.349 13.6882 161.544 14.5531 161.544 15.5615V27H157.083V24.6483H156.951C156.678 25.1782 156.314 25.6456 155.858 26.0505C155.401 26.4479 154.853 26.7608 154.213 26.989C153.572 27.2098 152.832 27.3202 151.993 27.3202ZM153.34 24.0741C154.032 24.0741 154.643 23.938 155.173 23.6656C155.703 23.3859 156.119 23.0105 156.421 22.5394C156.723 22.0683 156.873 21.5347 156.873 20.9385V19.1388C156.726 19.2345 156.524 19.3228 156.266 19.4038C156.016 19.4774 155.733 19.5473 155.416 19.6136C155.1 19.6724 154.783 19.7277 154.466 19.7792C154.15 19.8233 153.863 19.8638 153.605 19.9006C153.053 19.9816 152.571 20.1104 152.159 20.2871C151.747 20.4637 151.427 20.7029 151.198 21.0047C150.97 21.2992 150.856 21.6672 150.856 22.1088C150.856 22.7492 151.088 23.2387 151.552 23.5773C152.023 23.9085 152.619 24.0741 153.34 24.0741ZM169.896 17.1956V27H165.193V10.041H169.675V13.0331H169.874C170.25 12.0468 170.879 11.2666 171.762 10.6924C172.646 10.1109 173.716 9.82019 174.975 9.82019C176.153 9.82019 177.18 10.0778 178.056 10.5931C178.932 11.1083 179.612 11.8444 180.098 12.8013C180.584 13.7508 180.827 14.8843 180.827 16.2019V27H176.123V17.041C176.131 16.0032 175.866 15.1935 175.328 14.612C174.791 14.0231 174.051 13.7287 173.109 13.7287C172.476 13.7287 171.917 13.8649 171.431 14.1372C170.953 14.4096 170.577 14.807 170.305 15.3296C170.04 15.8449 169.904 16.4669 169.896 17.1956ZM192.174 33.7129C190.651 33.7129 189.344 33.5032 188.255 33.0836C187.173 32.6714 186.312 32.1083 185.671 31.3943C185.031 30.6803 184.615 29.878 184.424 28.9874L188.774 28.4022C188.906 28.7408 189.116 29.0573 189.403 29.3517C189.69 29.6462 190.069 29.8817 190.54 30.0584C191.019 30.2424 191.6 30.3344 192.285 30.3344C193.308 30.3344 194.151 30.0841 194.813 29.5836C195.483 29.0904 195.818 28.2624 195.818 27.0994V23.9968H195.619C195.413 24.4679 195.104 24.9132 194.692 25.3328C194.279 25.7524 193.749 26.0946 193.102 26.3596C192.454 26.6246 191.681 26.7571 190.783 26.7571C189.51 26.7571 188.35 26.4627 187.305 25.8738C186.267 25.2776 185.439 24.3686 184.821 23.1467C184.21 21.9175 183.905 20.3644 183.905 18.4874C183.905 16.5662 184.217 14.9616 184.843 13.6735C185.469 12.3854 186.3 11.4211 187.338 10.7808C188.384 10.1404 189.528 9.82019 190.772 9.82019C191.722 9.82019 192.517 9.98212 193.157 10.306C193.797 10.6225 194.313 11.02 194.703 11.4984C195.1 11.9695 195.406 12.4332 195.619 12.8896H195.796V10.041H200.466V27.1656C200.466 28.6083 200.113 29.8155 199.406 30.7871C198.7 31.7587 197.721 32.4874 196.469 32.9732C195.225 33.4664 193.794 33.7129 192.174 33.7129ZM192.274 23.224C193.032 23.224 193.672 23.0363 194.195 22.6609C194.725 22.2781 195.13 21.7334 195.409 21.0268C195.696 20.3128 195.84 19.459 195.84 18.4653C195.84 17.4716 195.7 16.6104 195.42 15.8817C195.141 15.1456 194.736 14.5752 194.206 14.1703C193.676 13.7655 193.032 13.5631 192.274 13.5631C191.501 13.5631 190.849 13.7729 190.319 14.1924C189.789 14.6046 189.388 15.1788 189.116 15.9148C188.844 16.6509 188.707 17.501 188.707 18.4653C188.707 19.4443 188.844 20.2907 189.116 21.0047C189.396 21.7114 189.797 22.2597 190.319 22.6498C190.849 23.0326 191.501 23.224 192.274 23.224ZM204.209 27V10.041H208.912V27H204.209ZM206.572 7.85488C205.873 7.85488 205.273 7.62302 204.772 7.1593C204.279 6.68822 204.032 6.12513 204.032 5.47003C204.032 4.82229 204.279 4.26656 204.772 3.80283C205.273 3.33175 205.873 3.09621 206.572 3.09621C207.271 3.09621 207.867 3.33175 208.36 3.80283C208.861 4.26656 209.111 4.82229 209.111 5.47003C209.111 6.12513 208.861 6.68822 208.36 7.1593C207.867 7.62302 207.271 7.85488 206.572 7.85488Z" fill="#EC5242"/>
</svg>
