<svg width="211" height="34" viewBox="0 0 211 34" fill="none" xmlns="http://www.w3.org/2000/svg">
<g clip-path="url(#clip0_118_150)">
<path fill-rule="evenodd" clip-rule="evenodd" d="M0.0939941 32.3743V32.3773H33.7634L26.056 18.9907C28.1744 17.909 32.3572 14.6908 32.1408 9.93104C31.8704 3.98138 27.4082 0.195322 23.0812 0.0600988C20.0728 -0.0339137 12.9686 0.00279704 6.94884 0.0339042C4.31009 0.0475399 1.87971 0.0600988 0.0939941 0.0600988V27.6416H15.9321H15.9614H15.9615C17.2922 27.6417 18.8135 27.6417 19.5841 26.5604C19.8905 26.1304 20.1064 25.5552 20.1064 24.802C20.1064 22.8549 18.664 22.1878 17.9428 22.0977H12.4688C11.4352 22.0977 10.3884 21.9943 9.46491 21.5301C7.44559 20.5152 4.96187 18.3415 4.96187 14.6606C4.96187 11.2778 6.91667 8.97728 8.69379 7.6966C9.81075 6.89168 11.2114 6.67608 12.5881 6.66312L24.839 6.54752V11.6858H13.1702C12.393 11.6858 11.583 11.7868 10.9816 12.279C10.4386 12.7236 9.96495 13.3962 9.96495 14.3902C9.96495 14.9973 10.2203 15.5519 10.5562 16.0079C11.304 17.023 12.6382 17.2298 13.899 17.2298H17.3708C18.2912 17.2298 19.2248 17.2767 20.0784 17.6214C22.1691 18.4656 24.839 20.5896 24.839 24.802C24.839 29.1339 22.0784 31.2572 20.0118 32.0514C19.2848 32.3308 18.4976 32.3743 17.7189 32.3743H0.0939941Z" fill="white"/>
<path d="M41.7429 27.2V4.39327H50.7405C52.4629 4.39327 53.9329 4.70135 55.1505 5.31755C56.3757 5.92631 57.3073 6.79123 57.9457 7.91227C58.5917 9.02587 58.9145 10.3362 58.9145 11.8433C58.9145 13.3578 58.5881 14.6608 57.9345 15.7521C57.2813 16.836 56.3349 17.6675 55.0949 18.2466C53.8625 18.8256 52.3701 19.1152 50.6181 19.1152H44.5937V15.2398H49.8385C50.7593 15.2398 51.5241 15.1136 52.1325 14.8612C52.7413 14.6088 53.1945 14.2302 53.4913 13.7253C53.7957 13.2205 53.9477 12.5932 53.9477 11.8433C53.9477 11.0861 53.7957 10.4476 53.4913 9.92791C53.1945 9.40823 52.7377 9.01475 52.1217 8.74747C51.5129 8.47279 50.7445 8.33543 49.8165 8.33543H46.5645V27.2H41.7429ZM54.0593 16.8212L59.7277 27.2H54.4045L48.8585 16.8212H54.0593ZM69.6861 27.5341C67.9561 27.5341 66.4601 27.1666 65.1981 26.4316C63.9433 25.6892 62.9745 24.6572 62.2917 23.3358C61.6085 22.0069 61.2669 20.4664 61.2669 18.7143C61.2669 16.9474 61.6085 15.4032 62.2917 14.0817C62.9745 12.7528 63.9433 11.7208 65.1981 10.9858C66.4601 10.2434 67.9561 9.87223 69.6861 9.87223C71.4157 9.87223 72.9081 10.2434 74.1625 10.9858C75.4249 11.7208 76.3973 12.7528 77.0805 14.0817C77.7633 15.4032 78.1049 16.9474 78.1049 18.7143C78.1049 20.4664 77.7633 22.0069 77.0805 23.3358C76.3973 24.6572 75.4249 25.6892 74.1625 26.4316C72.9081 27.1666 71.4157 27.5341 69.6861 27.5341ZM69.7081 23.8592C70.4953 23.8592 71.1521 23.6364 71.6793 23.191C72.2065 22.7381 72.6037 22.1219 72.8709 21.3424C73.1457 20.5629 73.2829 19.6757 73.2829 18.6809C73.2829 17.686 73.1457 16.7989 72.8709 16.0194C72.6037 15.2398 72.2065 14.6236 71.6793 14.1708C71.1521 13.7179 70.4953 13.4914 69.7081 13.4914C68.9137 13.4914 68.2457 13.7179 67.7037 14.1708C67.1693 14.6236 66.7645 15.2398 66.4901 16.0194C66.2225 16.7989 66.0889 17.686 66.0889 18.6809C66.0889 19.6757 66.2225 20.5629 66.4901 21.3424C66.7645 22.1219 67.1693 22.7381 67.7037 23.191C68.2457 23.6364 68.9137 23.8592 69.7081 23.8592ZM88.9181 27.5341C87.1881 27.5341 85.6921 27.1666 84.4301 26.4316C83.1757 25.6892 82.2065 24.6572 81.5237 23.3358C80.8405 22.0069 80.4993 20.4664 80.4993 18.7143C80.4993 16.9474 80.8405 15.4032 81.5237 14.0817C82.2065 12.7528 83.1757 11.7208 84.4301 10.9858C85.6921 10.2434 87.1881 9.87223 88.9181 9.87223C90.6477 9.87223 92.1401 10.2434 93.3949 10.9858C94.6569 11.7208 95.6293 12.7528 96.3125 14.0817C96.9953 15.4032 97.3369 16.9474 97.3369 18.7143C97.3369 20.4664 96.9953 22.0069 96.3125 23.3358C95.6293 24.6572 94.6569 25.6892 93.3949 26.4316C92.1401 27.1666 90.6477 27.5341 88.9181 27.5341ZM88.9401 23.8592C89.7273 23.8592 90.3841 23.6364 90.9113 23.191C91.4385 22.7381 91.8357 22.1219 92.1029 21.3424C92.3777 20.5629 92.5149 19.6757 92.5149 18.6809C92.5149 17.686 92.3777 16.7989 92.1029 16.0194C91.8357 15.2398 91.4385 14.6236 90.9113 14.1708C90.3841 13.7179 89.7273 13.4914 88.9401 13.4914C88.1461 13.4914 87.4777 13.7179 86.9357 14.1708C86.4013 14.6236 85.9965 15.2398 85.7221 16.0194C85.4545 16.7989 85.3209 17.686 85.3209 18.6809C85.3209 19.6757 85.4545 20.5629 85.7221 21.3424C85.9965 22.1219 86.4013 22.7381 86.9357 23.191C87.4777 23.6364 88.1461 23.8592 88.9401 23.8592ZM100.422 27.2V10.095H104.943V13.1128H105.143C105.5 12.1106 106.094 11.3199 106.925 10.7408C107.757 10.1618 108.751 9.87223 109.91 9.87223C111.083 9.87223 112.081 10.1655 112.905 10.752C113.729 11.331 114.279 12.118 114.553 13.1128H114.732C115.081 12.1328 115.711 11.3496 116.625 10.7631C117.545 10.1692 118.633 9.87223 119.888 9.87223C121.484 9.87223 122.779 10.3808 123.774 11.3979C124.776 12.4076 125.277 13.8404 125.277 15.6964V27.2H120.545V16.6318C120.545 15.6816 120.292 14.9688 119.787 14.4937C119.283 14.0186 118.651 13.781 117.894 13.781C117.033 13.781 116.361 14.0557 115.879 14.6051C115.396 15.147 115.155 15.8634 115.155 16.7543V27.2H110.555V16.5316C110.555 15.6927 110.314 15.0245 109.832 14.5271C109.357 14.0297 108.729 13.781 107.95 13.781C107.423 13.781 106.947 13.9146 106.524 14.1819C106.109 14.4417 105.778 14.8092 105.533 15.2844C105.288 15.7521 105.166 16.3015 105.166 16.9325V27.2H100.422ZM143.257 14.9726L138.914 15.2398C138.839 14.8686 138.68 14.5345 138.435 14.2376C138.19 13.9332 137.867 13.6919 137.466 13.5137C137.073 13.3281 136.601 13.2353 136.052 13.2353C135.317 13.2353 134.697 13.3912 134.192 13.703C133.687 14.0074 133.435 14.4158 133.435 14.928C133.435 15.3363 133.598 15.6816 133.925 15.9637C134.251 16.2458 134.812 16.4722 135.606 16.643L138.702 17.2666C140.365 17.6081 141.605 18.1575 142.421 18.9147C143.238 19.672 143.647 20.6668 143.647 21.8992C143.647 23.0202 143.316 24.0039 142.655 24.8503C142.002 25.6966 141.104 26.3574 139.961 26.8325C138.825 27.3002 137.514 27.5341 136.029 27.5341C133.765 27.5341 131.961 27.0626 130.617 26.1198C129.281 25.1695 128.498 23.8777 128.267 22.2444L132.933 21.9994C133.075 22.6899 133.416 23.217 133.958 23.5808C134.5 23.9371 135.194 24.1153 136.041 24.1153C136.872 24.1153 137.54 23.9557 138.045 23.6364C138.557 23.3098 138.817 22.8903 138.825 22.3781C138.817 21.9475 138.635 21.5948 138.279 21.3201C137.923 21.038 137.373 20.8227 136.631 20.6742L133.669 20.084C131.998 19.75 130.755 19.1709 129.938 18.3468C129.129 17.5227 128.724 16.4722 128.724 15.1953C128.724 14.0965 129.021 13.15 129.615 12.3556C130.216 11.5612 131.059 10.9487 132.143 10.5181C133.234 10.0875 134.511 9.87223 135.974 9.87223C138.134 9.87223 139.834 10.3288 141.074 11.242C142.321 12.1551 143.049 13.3986 143.257 14.9726ZM151.511 27.523C150.42 27.523 149.447 27.3336 148.594 26.955C147.74 26.569 147.064 26.001 146.567 25.2512C146.077 24.4939 145.832 23.5511 145.832 22.4226C145.832 21.4723 146.007 20.6742 146.355 20.0284C146.704 19.3824 147.179 18.8628 147.781 18.4693C148.382 18.0758 149.065 17.7788 149.83 17.5784C150.602 17.378 151.411 17.2369 152.257 17.1552C153.252 17.0513 154.054 16.9548 154.663 16.8657C155.272 16.7692 155.713 16.6281 155.988 16.4425C156.263 16.2569 156.4 15.9822 156.4 15.6184V15.5516C156.4 14.8464 156.177 14.3007 155.732 13.9146C155.294 13.5286 154.67 13.3356 153.861 13.3356C153.007 13.3356 152.328 13.5249 151.823 13.9035C151.318 14.2747 150.984 14.7424 150.821 15.3066L146.433 14.9503C146.656 13.9109 147.094 13.0126 147.747 12.2554C148.401 11.4907 149.243 10.9042 150.275 10.4958C151.315 10.0801 152.517 9.87223 153.883 9.87223C154.834 9.87223 155.743 9.98359 156.612 10.2063C157.488 10.429 158.263 10.7742 158.939 11.242C159.622 11.7097 160.16 12.311 160.554 13.046C160.947 13.7736 161.144 14.6459 161.144 15.663V27.2H156.645V24.828H156.511C156.237 25.3626 155.869 25.834 155.409 26.2423C154.949 26.6432 154.396 26.9587 153.75 27.1889C153.104 27.4116 152.358 27.523 151.511 27.523ZM152.87 24.2489C153.568 24.2489 154.184 24.1116 154.719 23.8369C155.253 23.5548 155.673 23.1762 155.977 22.701C156.281 22.2259 156.433 21.6876 156.433 21.0863V19.2711C156.285 19.3676 156.081 19.4567 155.821 19.5384C155.569 19.6126 155.283 19.6831 154.963 19.75C154.644 19.8094 154.325 19.865 154.006 19.917C153.687 19.9615 153.397 20.0024 153.137 20.0395C152.581 20.1212 152.094 20.2511 151.679 20.4292C151.263 20.6074 150.94 20.8487 150.709 21.1531C150.479 21.45 150.364 21.8213 150.364 22.2667C150.364 22.9126 150.598 23.4063 151.066 23.7478C151.541 24.0819 152.143 24.2489 152.87 24.2489ZM169.569 17.3112V27.2H164.825V10.095H169.346V13.1128H169.546C169.925 12.118 170.56 11.331 171.451 10.752C172.341 10.1655 173.422 9.87223 174.691 9.87223C175.879 9.87223 176.915 10.1321 177.798 10.6518C178.681 11.1714 179.368 11.9138 179.858 12.879C180.348 13.8367 180.593 14.98 180.593 16.3089V27.2H175.849V17.1552C175.857 16.1084 175.589 15.2918 175.047 14.7053C174.505 14.1114 173.759 13.8144 172.809 13.8144C172.171 13.8144 171.607 13.9518 171.117 14.2264C170.634 14.5011 170.255 14.902 169.981 15.4292C169.713 15.9488 169.576 16.5762 169.569 17.3112ZM192.039 33.9708C190.502 33.9708 189.184 33.7592 188.085 33.336C186.994 32.9202 186.125 32.3523 185.479 31.6322C184.833 30.912 184.414 30.1028 184.221 29.2045L188.609 28.6143C188.742 28.9558 188.954 29.275 189.243 29.572C189.533 29.869 189.915 30.1065 190.39 30.2847C190.873 30.4703 191.459 30.5631 192.15 30.5631C193.182 30.5631 194.032 30.3107 194.7 29.8058C195.375 29.3084 195.713 28.4732 195.713 27.3002V24.171H195.513C195.305 24.6461 194.993 25.0953 194.577 25.5184C194.162 25.9416 193.627 26.2868 192.974 26.5541C192.321 26.8214 191.541 26.955 190.635 26.955C189.351 26.955 188.182 26.658 187.127 26.0641C186.081 25.4628 185.245 24.5459 184.622 23.3135C184.005 22.0737 183.697 20.5072 183.697 18.6141C183.697 16.6764 184.013 15.0579 184.644 13.7587C185.275 12.4595 186.114 11.487 187.161 10.8411C188.215 10.1952 189.369 9.87223 190.624 9.87223C191.582 9.87223 192.384 10.0356 193.029 10.3622C193.675 10.6814 194.195 11.0824 194.589 11.5649C194.989 12.04 195.297 12.5078 195.513 12.9681H195.691V10.095H200.402V27.367C200.402 28.8222 200.045 30.0397 199.333 31.0197C198.62 31.9996 197.633 32.7346 196.37 33.2246C195.116 33.722 193.672 33.9708 192.039 33.9708ZM192.139 23.3914C192.903 23.3914 193.549 23.2021 194.076 22.8235C194.611 22.4375 195.019 21.8881 195.301 21.1754C195.591 20.4552 195.736 19.594 195.736 18.5918C195.736 17.5896 195.595 16.7209 195.313 15.986C195.03 15.2435 194.622 14.6682 194.087 14.2598C193.553 13.8515 192.903 13.6474 192.139 13.6474C191.359 13.6474 190.702 13.859 190.167 14.2821C189.633 14.6979 189.229 15.277 188.954 16.0194C188.679 16.7618 188.542 17.6192 188.542 18.5918C188.542 19.5792 188.679 20.433 188.954 21.1531C189.236 21.8658 189.641 22.4189 190.167 22.8124C190.702 23.1984 191.359 23.3914 192.139 23.3914ZM204.177 27.2V10.095H208.921V27.2H204.177ZM206.56 7.88999C205.855 7.88999 205.249 7.65615 204.745 7.18843C204.247 6.71327 203.999 6.14535 203.999 5.48459C203.999 4.83127 204.247 4.27075 204.745 3.80304C205.249 3.3279 205.855 3.09033 206.56 3.09033C207.265 3.09033 207.867 3.3279 208.364 3.80304C208.869 4.27075 209.121 4.83127 209.121 5.48459C209.121 6.14535 208.869 6.71327 208.364 7.18843C207.867 7.65615 207.265 7.88999 206.56 7.88999Z" fill="white"/>
</g>
<defs>
<clipPath id="clip0_118_150">
<rect width="210.8" height="34" fill="white" transform="translate(0.0939941)"/>
</clipPath>
</defs>
</svg>
