<svg width="48" height="49" viewBox="0 0 48 49" fill="none" xmlns="http://www.w3.org/2000/svg">
<g id="webhook_FILL0_wght200_GRAD0_opsz48 1">
<path id="Vector" d="M13.7693 41.5C11.3487 41.5 9.28205 40.6436 7.56925 38.9308C5.85642 37.218 5 35.1513 5 32.7307C5 30.8564 5.50897 29.1821 6.5269 27.7077C7.54487 26.2333 8.88205 25.191 10.5384 24.5807V26.2693C9.34615 26.8641 8.38142 27.7353 7.64425 28.8827C6.90705 30.0301 6.53845 31.3128 6.53845 32.7307C6.53845 34.7102 7.24872 36.4102 8.66925 37.8307C10.0897 39.2513 11.7898 39.9616 13.7693 39.9616C15.7744 39.9616 17.4808 39.2513 18.8885 37.8307C20.2962 36.4102 21 34.7102 21 32.7307V31.9615H32.1039C32.2936 31.5333 32.5846 31.1827 32.9769 30.9096C33.3692 30.6365 33.7872 30.5 34.2307 30.5C34.8538 30.5 35.3814 30.716 35.8134 31.1481C36.2455 31.5801 36.4616 32.1077 36.4616 32.7307C36.4616 33.3461 36.2455 33.8718 35.8134 34.3077C35.3814 34.7436 34.8538 34.9615 34.2307 34.9615C33.7615 34.9615 33.3372 34.8314 32.9577 34.5711C32.5782 34.3109 32.2936 33.9538 32.1039 33.5H22.5539C22.2154 35.9538 21.1968 37.9006 19.4981 39.3404C17.7994 40.7801 15.8898 41.5 13.7693 41.5ZM34.2307 41.5C32.9384 41.5 31.7327 41.2423 30.6134 40.727C29.4942 40.2116 28.4756 39.4692 27.5577 38.5H29.8961C30.4731 38.9359 31.1301 39.2885 31.8673 39.5577C32.6045 39.8269 33.3923 39.9616 34.2307 39.9616C36.2359 39.9616 37.9423 39.2513 39.35 37.8307C40.7577 36.4102 41.4616 34.7102 41.4616 32.7307C41.4616 30.7256 40.7577 29.0192 39.35 27.6115C37.9423 26.2038 36.2359 25.5 34.2307 25.5C33.6743 25.5 33.1423 25.5558 32.6346 25.6673C32.1269 25.7788 31.6487 25.9462 31.2 26.1693L25.4423 16.4616C24.75 16.5846 24.1314 16.4276 23.5865 15.9904C23.0417 15.5532 22.7693 14.9795 22.7693 14.2693C22.7693 13.6462 22.9872 13.1186 23.4231 12.6866C23.859 12.2545 24.3846 12.0384 25 12.0384C25.6231 12.0384 26.1506 12.2545 26.5827 12.6866C27.0147 13.1186 27.2307 13.6462 27.2307 14.2693C27.2307 14.5051 27.1904 14.7327 27.1096 14.9519C27.0288 15.1711 26.9167 15.3846 26.7731 15.5923L31.8846 24.2385C32.2513 24.1718 32.6353 24.109 33.0366 24.05C33.4378 23.991 33.8359 23.9615 34.2307 23.9615C36.659 23.9615 38.7276 24.816 40.4366 26.525C42.1455 28.234 43 30.3025 43 32.7307C43 35.1513 42.1455 37.218 40.4366 38.9308C38.7276 40.6436 36.659 41.5 34.2307 41.5ZM13.7693 34.9615C13.1539 34.9615 12.6282 34.7436 12.1923 34.3077C11.7564 33.8718 11.5384 33.3461 11.5384 32.7307C11.5384 32.1307 11.7853 31.5929 12.2789 31.1173C12.7725 30.6417 13.4128 30.4487 14.2 30.5385L19.7115 21.2654C18.5833 20.3756 17.7212 19.3224 17.125 18.1058C16.5288 16.8891 16.2308 15.6103 16.2308 14.2693C16.2308 11.841 17.0872 9.77242 18.8 8.06345C20.5128 6.35448 22.5795 5.5 25 5.5C27.3795 5.5 29.4218 6.33013 31.127 7.9904C32.8321 9.65063 33.7128 11.6666 33.7693 14.0384H32.2307C32.182 12.082 31.4558 10.4263 30.0519 9.07115C28.6481 7.71602 26.9641 7.03845 25 7.03845C23.0205 7.03845 21.3205 7.7423 19.9 9.15C18.4795 10.5577 17.7693 12.2641 17.7693 14.2693C17.7693 15.6693 18.1263 16.934 18.8404 18.0634C19.5545 19.1929 20.5449 20.1064 21.8116 20.8039L15.5307 31.3577C15.6743 31.5577 15.7885 31.784 15.8731 32.0365C15.9577 32.2891 16 32.5205 16 32.7307C16 33.3461 15.784 33.8718 15.3519 34.3077C14.9199 34.7436 14.3923 34.9615 13.7693 34.9615Z" fill="#EC5242"/>
</g>
</svg>
