<svg width="134" height="34" viewBox="0 0 134 34" fill="none" xmlns="http://www.w3.org/2000/svg">
<path d="M13.5591 29C6.35758 29 0.776367 24.1305 0.776367 17C0.776367 9.86956 6.35758 5 13.5591 5C18.8523 5 21.913 7.7826 23.6054 10.6696L19.2123 12.7565C18.2041 10.8783 16.0437 9.3826 13.5591 9.3826C9.20221 9.3826 6.03352 12.6174 6.03352 17C6.03352 21.3826 9.20221 24.6174 13.5591 24.6174C16.0437 24.6174 18.2041 23.1565 19.2123 21.2435L23.6054 23.2957C21.877 26.1826 18.8523 29 13.5591 29ZM46.6332 28.5826H41.4841V18.8435H30.1416V28.5826H25.0285V5.38261H30.1416V14.4956H41.4841V5.38261H46.6332V28.5826ZM54.859 28.5826H49.7459V5.38261H54.859V28.5826ZM85.0434 28.5826H79.1742L74.4571 20.3391H70.7123V28.5826H65.5992V5.38261H76.8336C81.8387 5.38261 84.8994 8.54783 84.8994 12.8608C84.8994 16.9652 82.2348 19.1565 79.6423 19.7478L85.0434 28.5826ZM76.0775 15.9913C78.1299 15.9913 79.6783 14.8087 79.6783 12.8608C79.6783 10.913 78.1299 9.73043 76.0775 9.73043H70.7123V15.9913H76.0775ZM92.2297 28.5826H87.1171V5.38261H98.3513C103.573 5.38261 106.417 8.7913 106.417 12.8608C106.417 16.8956 103.536 20.3391 98.3513 20.3391H92.2297V28.5826ZM97.6666 15.9913C99.6835 15.9913 101.196 14.7739 101.196 12.8608C101.196 10.913 99.6835 9.73043 97.6666 9.73043H92.2297V15.9913H97.6666ZM134 28.5826H128.85V12.3391L122.081 28.5826H119.849L113.08 12.3391V28.5826H107.966V5.38261H115.132L120.964 19.4L126.798 5.38261H134V28.5826Z" fill="white"/>
</svg>
