<svg width="161" height="34" viewBox="0 0 161 34" fill="none" xmlns="http://www.w3.org/2000/svg">
<g clip-path="url(#clip0_118_158)">
<path d="M14.1362 2.8563C14.1362 1.27881 12.8574 0 11.2799 0C9.70239 0 8.42358 1.27881 8.42358 2.8563C8.42358 4.4338 9.70239 5.71261 11.2799 5.71261C12.8574 5.71261 14.1362 4.4338 14.1362 2.8563Z" fill="white"/>
<path d="M20.6297 0H17.8768C16.2993 0 15.0205 1.27881 15.0205 2.8563C15.0205 4.4338 16.2993 5.71261 17.8768 5.71261H20.6297C22.2072 5.71261 23.486 4.4338 23.486 2.8563C23.486 1.27881 22.2072 0 20.6297 0Z" fill="white"/>
<path d="M33.8924 0H27.2264C25.6489 0 24.3701 1.27881 24.3701 2.8563C24.3701 4.4338 25.6489 5.71261 27.2264 5.71261H33.8924C35.4699 5.71261 36.7487 4.4338 36.7487 2.8563C36.7487 1.27881 35.4699 0 33.8924 0Z" fill="#A4A4A4"/>
<path d="M7.00499 7.07364H5.96739C4.3899 7.07364 3.11108 8.35245 3.11108 9.92994C3.11108 11.5074 4.3899 12.7862 5.96739 12.7862H7.00499C8.58248 12.7862 9.86129 11.5074 9.86129 9.92994C9.86129 8.35245 8.58248 7.07364 7.00499 7.07364Z" fill="white"/>
<path d="M20.2754 7.07364H13.7396C12.1621 7.07364 10.8833 8.35245 10.8833 9.92994C10.8833 11.5074 12.1621 12.7862 13.7396 12.7862H20.2754C21.8529 12.7862 23.1317 11.5074 23.1317 9.92994C23.1317 8.35245 21.8529 7.07364 20.2754 7.07364Z" fill="white"/>
<path d="M39.2048 7.07364H27.01C25.4325 7.07364 24.1537 8.35245 24.1537 9.92994C24.1537 11.5074 25.4325 12.7862 27.01 12.7862H39.2048C40.7823 12.7862 42.0611 11.5074 42.0611 9.92994C42.0611 8.35245 40.7823 7.07364 39.2048 7.07364Z" fill="#A4A4A4"/>
<path d="M5.59351 14.1436H3.70592C2.12842 14.1436 0.849609 15.4224 0.849609 16.9999C0.849609 18.5774 2.12842 19.8562 3.70592 19.8562H5.59351C7.17101 19.8562 8.44982 18.5774 8.44982 16.9999C8.44982 15.4224 7.17101 14.1436 5.59351 14.1436Z" fill="white"/>
<path d="M20.343 14.1436H12.2641C10.6866 14.1436 9.40784 15.4224 9.40784 16.9999C9.40784 18.5774 10.6866 19.8562 12.2641 19.8562H20.343C21.9204 19.8562 23.1993 18.5774 23.1993 16.9999C23.1993 15.4224 21.9204 14.1436 20.343 14.1436Z" fill="white"/>
<path d="M41.4656 14.1436H27.0118C25.4343 14.1436 24.1555 15.4224 24.1555 16.9999C24.1555 18.5774 25.4343 19.8562 27.0118 19.8562H41.4656C43.0431 19.8562 44.3219 18.5774 44.3219 16.9999C44.3219 15.4224 43.0431 14.1436 41.4656 14.1436Z" fill="#A4A4A4"/>
<path d="M6.92857 21.2173H5.89098C4.31348 21.2173 3.03467 22.4961 3.03467 24.0736C3.03467 25.6511 4.31348 26.9299 5.89098 26.9299H6.92857C8.50607 26.9299 9.78488 25.6511 9.78488 24.0736C9.78488 22.4961 8.50607 21.2173 6.92857 21.2173Z" fill="white"/>
<path d="M20.2754 21.2173H13.7396C12.1621 21.2173 10.8833 22.4961 10.8833 24.0736C10.8833 25.6511 12.1621 26.9299 13.7396 26.9299H20.2754C21.8529 26.9299 23.1317 25.6511 23.1317 24.0736C23.1317 22.4961 21.8529 21.2173 20.2754 21.2173Z" fill="white"/>
<path d="M39.2831 21.2173H27.0882C25.5107 21.2173 24.2319 22.4961 24.2319 24.0736C24.2319 25.6511 25.5107 26.9299 27.0882 26.9299H39.2831C40.8605 26.9299 42.1394 25.6511 42.1394 24.0736C42.1394 22.4961 40.8605 21.2173 39.2831 21.2173Z" fill="#A4A4A4"/>
<path d="M14.1362 31.1436C14.1362 29.5661 12.8574 28.2873 11.2799 28.2873C9.70239 28.2873 8.42358 29.5661 8.42358 31.1436C8.42358 32.7211 9.70239 33.9999 11.2799 33.9999C12.8574 33.9999 14.1362 32.7211 14.1362 31.1436Z" fill="white"/>
<path d="M20.6297 28.2873H17.8768C16.2993 28.2873 15.0205 29.5661 15.0205 31.1436C15.0205 32.7211 16.2993 33.9999 17.8768 33.9999H20.6297C22.2072 33.9999 23.486 32.7211 23.486 31.1436C23.486 29.5661 22.2072 28.2873 20.6297 28.2873Z" fill="white"/>
<path d="M33.8924 28.2873H27.2264C25.6489 28.2873 24.3701 29.5661 24.3701 31.1436C24.3701 32.7211 25.6489 33.9999 27.2264 33.9999H33.8924C35.4699 33.9999 36.7487 32.7211 36.7487 31.1436C36.7487 29.5661 35.4699 28.2873 33.8924 28.2873Z" fill="#A4A4A4"/>
<path d="M62.7161 27.3866C59.6952 27.3866 57.19 26.3922 55.2017 24.4036C53.2129 22.3958 52.2185 19.9196 52.2185 16.9748C52.2185 14.0301 53.2129 11.5634 55.2017 9.57476C57.19 7.567 59.6952 6.56311 62.7161 6.56311C64.533 6.56311 66.206 6.99333 67.7355 7.85381C69.2846 8.71429 70.4891 9.88072 71.3498 11.3531L68.4817 13.0166C67.9461 12.0223 67.1622 11.2383 66.1296 10.6647C65.1162 10.0719 63.9783 9.77555 62.7161 9.77555C60.5746 9.77555 58.8345 10.4543 57.496 11.812C56.1769 13.1696 55.517 14.8906 55.517 16.9748C55.517 19.0591 56.1769 20.78 57.496 22.1377C58.8345 23.4953 60.5746 24.1741 62.7161 24.1741C63.9783 24.1741 65.1255 23.8873 66.158 23.3137C67.1906 22.7209 67.9652 21.9273 68.4817 20.933L71.3498 22.5679C70.5082 24.0403 69.3135 25.2163 67.7644 26.0958C66.2349 26.9563 64.5521 27.3866 62.7161 27.3866ZM85.9931 6.93599H89.2915V27.0137H85.9931V18.3229H77.3887V27.0137H74.0898V6.93599H77.3887V15.1679H85.9931V6.93599ZM93.3049 6.93599H96.6034V27.0137H93.3049V6.93599Z" fill="white"/>
<path d="M113.666 6.936V10.0911H108.016V27.0137H104.717V10.0911H99.0383V6.936H113.666ZM115.765 21.1625C115.995 22.2524 116.521 23.0938 117.343 23.6865C118.165 24.2602 119.169 24.547 120.355 24.547C121.999 24.547 123.233 23.9543 124.055 22.7687L126.608 24.2602C125.193 26.3445 123.099 27.3866 120.326 27.3866C117.993 27.3866 116.11 26.6791 114.676 25.2641C113.241 23.83 112.525 22.023 112.525 19.8431C112.525 17.7015 113.232 15.9136 114.647 14.4795C116.062 13.0262 117.879 12.2996 120.096 12.2996C122.2 12.2996 123.921 13.0358 125.259 14.5082C126.617 15.9805 127.296 17.7684 127.296 19.8718C127.296 20.1968 127.258 20.6271 127.181 21.1625H115.765ZM115.737 18.6384H124.169C123.959 17.472 123.472 16.5924 122.707 15.9997C121.961 15.4069 121.082 15.1105 120.068 15.1105C118.921 15.1105 117.965 15.426 117.2 16.057C116.435 16.688 115.947 17.5485 115.737 18.6384ZM136.707 27.3866C134.546 27.3866 132.739 26.66 131.286 25.2067C129.852 23.7535 129.134 21.9656 129.134 19.8431C129.134 17.7015 129.852 15.9136 131.286 14.4795C132.739 13.0262 134.546 12.2996 136.707 12.2996C138.102 12.2996 139.374 12.6342 140.522 13.3035C141.669 13.9727 142.529 14.8715 143.103 15.9997L140.435 17.5485C140.11 16.8601 139.613 16.3247 138.944 15.9423C138.294 15.5407 137.538 15.34 136.678 15.34C135.416 15.34 134.355 15.7702 133.494 16.6307C132.653 17.4911 132.232 18.562 132.232 19.8431C132.232 21.1243 132.653 22.1951 133.494 23.0555C134.355 23.916 135.416 24.3462 136.678 24.3462C137.519 24.3462 138.275 24.1455 138.944 23.7439C139.632 23.3424 140.149 22.8069 140.493 22.1377L143.16 23.6579C142.549 24.8051 141.669 25.7134 140.522 26.3827C139.374 27.0519 138.102 27.3866 136.707 27.3866ZM152.943 12.2996C154.587 12.2996 155.916 12.8255 156.93 13.8771C157.943 14.9288 158.45 16.3725 158.45 18.2082V27.0137H155.352V18.5237C155.352 17.4529 155.065 16.6307 154.491 16.057C153.918 15.4834 153.134 15.1965 152.14 15.1965C151.049 15.1965 150.17 15.5407 149.501 16.2291C148.832 16.8984 148.497 17.931 148.497 19.3268V27.0137H145.399V6.936H148.497V14.5082C149.434 13.0358 150.916 12.2996 152.943 12.2996Z" fill="#A4A4A4"/>
</g>
<defs>
<clipPath id="clip0_118_158">
<rect width="159.753" height="34" fill="white" transform="translate(0.849609)"/>
</clipPath>
</defs>
</svg>
