<svg width="24" height="24" viewBox="0 0 24 24" fill="none" xmlns="http://www.w3.org/2000/svg">
<g id="twitter">
<path id="twitter_2" d="M9.49603 22C7.10494 22 4.87604 21.3045 3 20.1046C4.59282 20.2077 7.40379 19.9608 9.15221 18.2931C6.52201 18.1724 5.33585 16.1552 5.18113 15.2931C5.40461 15.3793 6.47044 15.4828 7.07212 15.2414C4.04653 14.4828 3.58238 11.8276 3.68553 11.0172C4.25282 11.4138 5.21551 11.5517 5.59371 11.5172C2.77441 9.5 3.78867 6.46552 4.28721 5.81034C6.31043 8.61336 9.34263 10.1876 13.0938 10.2752C13.0231 9.965 12.9858 9.64205 12.9858 9.31034C12.9858 6.92981 14.9099 5 17.2835 5C18.5236 5 19.6411 5.52682 20.4255 6.36949C21.2542 6.1753 22.5014 5.7207 23.1112 5.32759C22.8038 6.43103 21.847 7.35154 21.2683 7.69271C21.2636 7.68105 21.2731 7.70432 21.2683 7.69271C21.7767 7.61581 23.1522 7.35145 23.6956 6.98276C23.4269 7.60266 22.4125 8.63336 21.58 9.2104C21.7349 16.0412 16.5087 22 9.49603 22Z" fill="white"/>
</g>
</svg>
